<?xml version="1.0" standalone="no"?>
<!DOCTYPE svg PUBLIC "-//W3C//DTD SVG 20010904//EN"
 "http://www.w3.org/TR/2001/REC-SVG-20010904/DTD/svg10.dtd">
<svg version="1.0" xmlns="http://www.w3.org/2000/svg"
 width="1369.000000pt" height="883.000000pt" viewBox="0 0 1369.000000 883.000000"
 preserveAspectRatio="xMidYMid meet">

<g transform="translate(0.000000,883.000000) scale(0.100000,-0.100000)"
fill="#000000" stroke="none">
<path d="M775 7708 c-3 -7 -4 -1579 -3 -3493 l3 -3480 3493 -3 3492 -2 0 1135
0 1135 -85 0 -85 0 0 -1045 0 -1045 -3320 0 -3320 0 0 3315 0 3315 3320 0
3320 0 0 -1045 0 -1045 85 0 85 0 0 1135 0 1135 -3490 0 c-2783 0 -3492 -3
-3495 -12z"/>
<path d="M10255 5211 c-33 -3 -66 -10 -72 -14 -10 -6 -13 -171 -13 -768 l0
-759 28 -12 c39 -17 330 -17 360 0 l22 13 0 349 c0 193 3 350 8 350 4 0 88
-151 187 -337 99 -185 187 -345 197 -357 15 -20 25 -21 200 -21 131 0 189 4
206 13 l22 13 0 754 0 754 -37 10 c-49 14 -287 14 -335 0 l-38 -10 0 -361 c0
-214 -4 -358 -9 -352 -5 5 -89 164 -187 353 -160 307 -182 345 -211 357 -26
11 -244 38 -263 32 -3 0 -32 -4 -65 -7z"/>
<path d="M3352 5197 c-37 -44 -43 -289 -8 -354 l17 -33 144 0 145 0 0 -569 c0
-516 2 -570 17 -582 25 -22 337 -26 386 -5 l37 15 0 570 0 571 140 0 139 0 18
33 c24 44 26 286 3 332 l-15 30 -506 3 c-400 2 -509 0 -517 -11z"/>
<path d="M4558 4782 c-40 -5 -83 -53 -97 -106 -17 -70 -14 -195 7 -236 15 -31
22 -35 62 -38 24 -2 48 -9 52 -15 4 -7 8 -177 8 -378 l0 -366 61 -7 c78 -8
252 -8 302 0 l37 7 0 346 c0 326 1 348 20 378 25 42 61 51 121 30 26 -10 49
-17 53 -17 26 0 86 201 86 290 0 83 -39 112 -151 112 -54 1 -79 -5 -122 -26
-51 -24 -120 -88 -159 -146 -14 -20 -17 -22 -17 -7 -1 31 -38 93 -75 124 -46
42 -124 64 -188 55z"/>
<path d="M8226 4779 c-150 -16 -299 -126 -370 -270 -52 -108 -67 -175 -67
-314 0 -237 72 -385 243 -495 86 -56 162 -75 298 -74 125 1 213 18 303 58 64
28 77 47 77 112 0 63 -56 188 -79 178 -93 -40 -156 -56 -237 -61 -133 -8 -178
10 -194 80 l-7 34 141 6 c160 7 236 25 310 76 117 81 160 290 91 439 -79 171
-269 257 -509 231z m141 -353 c23 -20 28 -32 28 -70 0 -69 -18 -81 -118 -81
l-82 0 -3 40 c-7 107 100 175 175 111z"/>
<path d="M8989 4782 c-36 -4 -84 -58 -103 -115 -22 -65 -21 -182 2 -227 15
-32 22 -35 67 -40 l50 -5 2 -363 c0 -200 4 -366 7 -369 20 -20 333 -28 364 -9
9 5 12 96 12 366 l0 360 23 14 c41 26 92 37 120 27 50 -19 52 -30 55 -412 l3
-357 22 -6 c29 -8 276 -8 316 0 l31 7 0 406 c0 429 -5 483 -50 570 -29 58
-104 119 -168 137 -66 20 -199 21 -273 4 -57 -14 -135 -49 -181 -83 l-27 -20
-42 38 c-65 58 -151 88 -230 77z"/>
<path d="M12030 4780 c-120 -15 -209 -61 -293 -149 -214 -224 -211 -667 5
-867 124 -114 275 -159 466 -136 99 11 208 44 257 76 54 36 56 107 5 214 l-29
62 -48 -21 c-113 -48 -282 -65 -348 -34 -32 16 -55 50 -55 84 0 16 14 19 138
24 206 9 299 43 369 135 71 93 84 267 31 384 -75 163 -278 256 -498 228z m108
-336 c52 -14 69 -108 27 -149 -21 -22 -33 -25 -100 -25 l-75 0 0 56 c0 30 5
64 10 74 21 39 82 58 138 44z"/>
<path d="M6603 4771 c-28 -4 -54 -9 -57 -12 -3 -3 80 -236 185 -517 l191 -512
-97 -235 c-54 -129 -96 -238 -92 -241 10 -10 330 -23 382 -16 l50 7 107 305
c292 829 418 1189 418 1198 0 5 -10 12 -23 16 -42 10 -292 17 -341 9 l-49 -8
-76 -262 c-42 -144 -79 -265 -83 -268 -4 -4 -11 10 -17 31 -26 94 -149 485
-155 491 -18 19 -233 27 -343 14z"/>
<path d="M5397 4763 c-18 -5 -18 -24 -15 -406 3 -353 6 -410 22 -471 48 -176
174 -260 391 -261 92 0 105 3 167 32 38 18 83 44 102 58 l34 26 45 -45 c46
-45 117 -76 177 -76 41 0 91 40 119 95 23 43 26 62 26 151 0 123 -12 144 -82
144 l-43 0 0 374 0 374 -22 6 c-30 8 -287 8 -327 0 l-31 -6 0 -368 0 -368 -36
-17 c-61 -29 -108 -31 -131 -5 -12 12 -24 35 -27 52 -3 17 -6 182 -6 368 0
299 -2 339 -16 344 -18 7 -320 6 -347 -1z"/>
</g>
</svg>
