<?xml version="1.0" standalone="no"?>
<!DOCTYPE svg PUBLIC "-//W3C//DTD SVG 20010904//EN"
 "http://www.w3.org/TR/2001/REC-SVG-20010904/DTD/svg10.dtd">
<svg version="1.0" xmlns="http://www.w3.org/2000/svg"
 width="2000.000000pt" height="1500.000000pt" viewBox="0 0 2000.000000 1500.000000"
 preserveAspectRatio="xMidYMid meet">

<g transform="translate(0.000000,1500.000000) scale(0.100000,-0.100000)"
fill="#000000" stroke="none">
<path fill="#FF0000" d="M14928 8978 l-848 -491 0 -987 0 -987 851 -491 850 -491 854 492 854
492 0 985 0 985 -850 490 c-467 270 -853 491 -857 492 -4 0 -388 -220 -854
-489z m1542 -300 l680 -393 0 -781 c0 -731 -1 -782 -17 -796 -24 -20 -1340
-778 -1351 -778 -6 0 -313 175 -683 389 l-674 389 0 792 0 792 670 388 c369
214 676 389 683 389 7 1 319 -176 692 -391z"/>
<path fill="#FF0000" d="M15155 8580 l-620 -358 0 -722 0 -722 623 -359 623 -360 622 358 622
359 0 724 0 724 -620 358 c-341 197 -622 358 -625 357 -3 0 -284 -161 -625
-359z m1082 -292 l453 -261 0 -527 0 -527 -454 -262 -455 -262 -455 263 -456
263 0 525 0 525 453 262 c248 144 454 262 456 262 2 1 208 -117 458 -261z"/>
<path fill="#FF0000" d="M15388 8190 l-393 -227 0 -463 0 -463 393 -227 394 -227 399 230 399
231 0 456 0 456 -399 231 -399 230 -394 -227z m810 -392 l52 -30 0 -268 0
-268 -52 -30 c-29 -16 -135 -77 -234 -135 l-182 -105 -228 132 -229 132 0 274
0 274 228 132 229 132 181 -105 c100 -58 206 -119 235 -135z"/>
<path fill="#FF0000" d="M6680 8340 c0 -319 -3 -580 -7 -580 -5 1 -24 23 -43 51 -41 58 -110
120 -194 174 -135 86 -277 121 -456 112 -178 -9 -319 -58 -465 -162 -267 -190
-410 -558 -374 -968 35 -404 226 -690 552 -825 226 -94 524 -82 739 30 80 41
200 145 241 208 15 24 16 18 16 -117 l1 -143 140 0 140 0 0 1400 0 1400 -145
0 -145 0 0 -580z m-427 -509 c149 -52 299 -188 400 -362 l27 -46 0 -349 0
-349 -37 -64 c-82 -138 -223 -258 -366 -310 -64 -23 -87 -26 -202 -26 -110 0
-140 4 -197 23 -225 78 -381 288 -423 571 -44 290 24 567 182 741 46 51 145
123 208 151 118 52 292 61 408 20z"/>
<path fill="#FF0000" d="M10720 8655 l0 -175 175 0 175 0 0 175 0 175 -175 0 -175 0 0 -175z"/>
<path fill="#FF0000" d="M3047 7478 c-284 -722 -520 -1321 -523 -1331 -6 -16 4 -17 157 -15
l162 3 147 385 146 385 580 0 579 0 146 -385 147 -385 162 -3 c152 -2 162 -1
158 15 -3 10 -225 574 -493 1253 -268 679 -500 1270 -517 1313 l-30 77 -152 0
-152 0 -517 -1312z m683 998 c0 -36 117 -368 286 -813 101 -267 184 -490 184
-494 0 -5 -218 -9 -485 -9 -267 0 -485 2 -485 4 0 2 61 166 136 363 177 464
275 735 309 853 15 52 29 98 32 103 7 12 23 8 23 -7z"/>
<path fill="#FF0000" d="M8241 8075 c-140 -40 -302 -166 -372 -290 l-34 -60 -3 168 -2 167
-135 0 -135 0 0 -965 0 -965 140 0 140 0 0 608 0 608 24 72 c39 113 94 208
167 286 106 113 218 158 343 135 133 -23 229 -118 282 -279 17 -51 19 -109 22
-742 l3 -688 139 0 139 0 3 648 3 647 33 75 c63 146 186 277 302 321 70 27
175 30 247 5 104 -35 192 -146 229 -287 15 -56 18 -148 21 -736 l5 -673 139 0
139 0 0 643 c0 635 -5 760 -35 882 -25 99 -79 198 -148 268 -120 122 -260 174
-442 164 -124 -6 -200 -31 -302 -100 -83 -55 -163 -145 -213 -239 l-32 -60
-32 74 c-69 160 -159 248 -302 299 -79 28 -257 35 -333 14z"/>
<path fill="#FF0000" d="M12591 8079 c-174 -34 -330 -125 -478 -277 l-93 -95 0 177 0 176
-140 0 -140 0 0 -965 0 -965 145 0 145 0 0 613 0 612 48 85 c33 60 74 112 137
176 137 139 275 209 432 221 233 18 389 -100 438 -334 12 -55 15 -190 15 -720
l0 -653 145 0 145 0 0 673 c0 409 -4 697 -10 735 -58 355 -296 555 -654 551
-50 -1 -111 -5 -135 -10z"/>
<path fill="#FF0000" d="M10750 7095 l0 -965 145 0 145 0 0 965 0 965 -145 0 -145 0 0 -965z"/>
</g>
</svg>
