<?xml version="1.0" standalone="no"?>
<!DOCTYPE svg PUBLIC "-//W3C//DTD SVG 20010904//EN"
 "http://www.w3.org/TR/2001/REC-SVG-20010904/DTD/svg10.dtd">
<svg version="1.0" xmlns="http://www.w3.org/2000/svg"
 width="2000.000000pt" height="1500.000000pt" viewBox="0 0 2000.000000 1500.000000"
 preserveAspectRatio="xMidYMid meet">

<g transform="translate(0.000000,1500.000000) scale(0.100000,-0.100000)"
fill="#000000" stroke="none">
<path fill='#8F00FF' d="M2500 7505 l0 -2625 7500 0 7500 0 0 2625 0 2625 -7500 0 -7500 0 0
-2625z m14860 0 l0 -2495 -7360 0 -7360 0 0 2495 0 2495 7360 0 7360 0 0
-2495z"/>
<path fill='#8F00FF' d="M2910 7505 l0 -2215 7090 0 7090 0 0 2215 0 2215 -7090 0 -7090 0 0
-2215z m7206 1774 c66 -25 134 -83 172 -148 24 -40 27 -57 27 -131 0 -62 -5
-95 -18 -121 -33 -66 -85 -117 -155 -151 -61 -30 -75 -33 -157 -33 -107 0
-158 19 -230 86 -69 64 -99 128 -99 215 0 60 4 81 29 129 36 71 106 131 177
156 74 26 182 25 254 -2z m-6212 -206 c3 -10 141 -639 306 -1398 166 -759 304
-1393 309 -1410 l7 -30 12 45 c6 25 151 659 322 1410 171 751 313 1373 316
1383 5 16 30 17 348 17 l342 0 320 -1430 c198 -886 322 -1423 326 -1412 5 9
145 647 313 1417 168 770 307 1406 310 1413 6 17 545 18 545 0 0 -10 -764
-3260 -776 -3301 -5 -16 -30 -17 -386 -15 l-381 3 -268 1185 c-244 1081 -271
1210 -308 1470 -23 157 -45 298 -49 314 -5 21 -19 -52 -51 -270 -40 -273 -67
-403 -315 -1499 l-272 -1200 -384 0 -383 0 -388 1655 c-214 910 -389 1658
-389 1663 0 4 128 7 284 7 262 0 285 -1 290 -17z m7678 -455 l3 -353 346 -3
347 -2 6 -31 c17 -89 -3 -228 -45 -311 l-19 -38 -320 0 -320 0 0 -713 c0 -730
5 -845 39 -922 59 -134 211 -159 461 -76 l125 42 19 -23 c33 -40 94 -180 107
-247 11 -59 11 -65 -7 -78 -71 -53 -257 -122 -386 -143 -100 -16 -351 -8 -433
14 -160 44 -274 134 -338 267 -80 166 -87 254 -87 1152 l0 727 -159 0 -159 0
-7 105 c-4 58 -4 143 0 190 l7 85 159 0 159 0 0 195 0 194 141 161 141 160
109 0 109 0 2 -352z m-2462 -298 c36 -6 86 -18 112 -26 l47 -15 6 -64 c13
-122 -27 -340 -77 -423 -31 -51 -56 -56 -135 -24 -61 24 -80 26 -193 26 -131
0 -216 -16 -292 -55 l-38 -19 0 -980 0 -980 -260 0 -260 0 0 1026 0 1027 -100
102 -100 101 0 137 0 137 227 0 228 0 125 -132 126 -132 32 56 c62 110 177
198 303 232 65 18 160 20 249 6z m4876 -1 c204 -28 394 -121 533 -260 249
-249 352 -668 273 -1109 l-17 -95 -808 2 -809 2 7 -87 c21 -274 86 -439 209
-532 119 -90 230 -115 511 -115 178 0 227 4 323 23 94 19 224 59 314 96 13 6
20 -4 38 -51 28 -76 67 -224 74 -289 l6 -51 -47 -21 c-250 -106 -672 -151
-1005 -107 -432 57 -702 248 -842 596 -135 335 -142 924 -15 1286 167 475 522
718 1056 722 67 1 157 -4 199 -10z m2589 -15 c91 -24 88 -19 82 -174 -6 -147
-23 -232 -63 -316 -35 -75 -56 -82 -147 -48 -131 48 -307 42 -459 -16 l-58
-21 0 -985 0 -984 -265 0 -265 0 0 1028 0 1027 -95 95 -95 95 0 142 0 143 224
0 224 0 126 -132 c69 -72 128 -130 130 -127 2 2 14 24 26 49 53 105 199 214
321 240 61 13 242 4 314 -16z m-6375 -1089 l0 -1045 75 -52 75 -52 0 -154 0
-154 -162 4 c-143 4 -172 8 -236 30 -153 55 -231 150 -252 308 -5 44 -10 508
-10 1118 l0 1042 255 0 255 0 0 -1045z"/>
<path fill='#8F00FF' d="M13688 7930 c-318 -38 -477 -231 -504 -613 l-7 -97 563 0 563 0 -6
128 c-6 141 -22 214 -71 317 -67 143 -199 244 -346 265 -73 11 -97 11 -192 0z"/>
</g>
</svg>
